<svg width="654" height="733" viewBox="0 0 654 733" fill="none" xmlns="http://www.w3.org/2000/svg">
<path d="M218 0.199741C218 1.89974 225.1 20.5997 231.3 34.9997C235.4 44.5997 241.6 60.5997 245 70.4997C248.5 80.3997 257.9 105.9 266.1 127.2C274.3 148.4 281.2 167 281.6 168.4C282.2 170.9 283.1 171.6 284.2 170.5C284.9 169.8 280.9 158.8 267.5 124C261.2 107.8 248 73.3997 238.2 47.4997C228.3 21.6997 219.8 0.399741 219.1 0.199741C218.5 -0.000258896 218 -0.000258896 218 0.199741Z" fill="black"/>
<path d="M411.301 51.2C397.501 79.4 384.201 107 381.901 112.5C379.601 118 373.701 132.2 368.801 144C363.901 155.8 359.601 166.1 359.301 166.7C359.001 167.4 359.401 168 360.201 168C360.901 168 362.001 166.8 362.601 165.2C373.201 138.3 395.401 88.9 413.601 52C433.101 12.4 438.601 -2.5034e-06 436.801 -2.5034e-06C436.601 -2.5034e-06 425.101 23.1 411.301 51.2Z" fill="black"/>
<path d="M324.7 45.5989C324.3 51.4989 324 80.5989 324 110.199C324 152.899 324.3 164.099 325.3 163.799C326.2 163.399 326.5 149.799 326.6 100.199C326.7 39.9989 326.1 22.2989 324.7 45.5989Z" fill="black"/>
<path d="M288.501 79.4986C289.401 84.8986 291.501 86.8986 290.701 81.5986C290.301 79.3986 289.601 77.1986 288.901 76.5986C288.001 75.7986 287.901 76.4986 288.501 79.4986Z" fill="black"/>
<path d="M358.6 79.5994C357.8 81.5994 357.8 87.4994 358.6 86.6994C359.7 85.6994 360.8 78.9994 360 78.4994C359.6 78.1994 358.9 78.6994 358.6 79.5994Z" fill="black"/>
<path d="M291 94.3998C291 95.1998 292.8 104 294.9 114.1C297.1 124.2 299.8 138.6 301 146C303.2 159.4 305.8 168.9 305.9 164.2C306 163 303.1 146.7 299.5 127.9C295.9 109.2 293 93.6998 293 93.3998C293 93.1998 292.6 92.9998 292 92.9998C291.5 92.9998 291 93.5998 291 94.3998Z" fill="black"/>
<path d="M355.501 96.1991C355.301 96.8991 354.601 100.899 354.001 104.999C353.301 109.099 350.601 123.299 347.901 136.499C343.201 159.599 342.001 168.199 344.001 163.499C344.501 162.399 346.101 155.199 347.501 147.499C348.901 139.799 351.901 124.999 354.001 114.699C356.201 104.399 358.001 95.6991 358.001 95.4991C358.001 94.3991 355.901 95.0991 355.501 96.1991Z" fill="black"/>
<path d="M163 97.699C163 98.099 173 108.499 185.3 120.899C197.5 133.299 217.8 153.999 230.3 166.799C242.9 179.699 253.4 189.899 253.7 189.599C254 189.299 252.6 187.099 250.4 184.799C243.1 176.599 164.5 96.999 163.8 96.999C163.3 96.999 163 97.299 163 97.699Z" fill="black"/>
<path d="M464.9 121.699C427.1 156.999 395 188.599 395 190.399C395 192.599 399.9 188.099 423.7 164.199C438.5 149.499 456.8 131.799 464.5 124.799C481.2 109.699 489.6 101.299 488.8 100.499C488.5 100.099 477.7 109.699 464.9 121.699Z" fill="black"/>
<path d="M218 103.299C218 104.699 220.8 109.599 222.4 110.899C223.7 111.999 224 111.999 224 110.599C224 108.999 218.1 101.799 218 103.299Z" fill="black"/>
<path d="M424.101 109.6C421.901 112.4 421.301 114.6 423.001 113.5C424.101 112.8 427.301 107 426.601 107C426.301 107 425.201 108.2 424.101 109.6Z" fill="black"/>
<path d="M228.201 118.2C228.601 119.1 233.401 126.3 238.901 134.2C244.401 142.1 252.201 154.1 256.301 160.7C265.001 174.8 267.201 177.9 268.401 178C269.901 178 268.101 174.9 249.601 147.2C233.101 122.2 226.301 113 228.201 118.2Z" fill="black"/>
<path d="M411.9 127.498C409.5 131.298 401.3 143.898 393.7 155.298C386.1 166.798 380.1 176.698 380.3 177.298C380.5 177.998 384.5 172.598 389.1 165.498C393.7 158.298 399.8 149.098 402.7 144.998C412 131.798 417.2 123.098 416.7 121.798C416.5 121.098 414.3 123.598 411.9 127.498Z" fill="black"/>
<path d="M63.5004 144.099C63.9004 144.599 74.2004 149.999 86.3004 155.899C98.5004 161.799 116.8 171.199 127 176.699C152.5 190.499 224.9 226.199 226.7 225.799C228 225.499 65.2004 142.999 63.5004 142.999C63.2004 142.999 63.2004 143.499 63.5004 144.099Z" fill="black"/>
<path d="M548.001 162.9C527.901 172.1 501.601 184.4 489.501 190.2C477.401 195.9 457.001 205.5 444.201 211.5C431.301 217.5 421.301 222.6 421.901 222.8C423.101 223.2 426.401 221.7 487.001 193.5C510.901 182.3 536.401 170.6 543.501 167.5C568.301 156.6 589.101 146 585.501 146.1C585.001 146.1 568.101 153.7 548.001 162.9Z" fill="black"/>
<path d="M169.302 155.5C170.802 156.9 172.602 158 173.302 158C174.002 158 173.202 156.8 171.702 155.5C170.202 154.1 168.402 153 167.702 153C167.002 153 167.802 154.2 169.302 155.5Z" fill="black"/>
<path d="M473.5 159.699C471.1 161.299 470.1 162.499 470.9 162.799C471.6 162.999 473.6 161.799 475.3 160.099C479.2 156.299 478.7 156.199 473.5 159.699Z" fill="black"/>
<path d="M183 164C183 164.5 186.4 167.3 190.7 170.2C200 176.6 211 184.6 227 196.4C233.7 201.3 239.3 205 239.6 204.7C240.5 203.9 235.7 200 220 188.8C212 183.1 200.7 174.9 194.9 170.7C184.2 162.9 183 162.2 183 164Z" fill="black"/>
<path d="M452.5 175.199C446.6 179.799 436.2 187.299 429.5 191.999C414.9 202.099 409.3 206.499 410.1 207.399C410.4 207.799 415.8 204.299 422.1 199.699C428.4 195.199 440.6 186.399 449.3 180.199C463.4 170.099 466.8 166.999 464.2 166.999C463.7 166.999 458.5 170.699 452.5 175.199Z" fill="black"/>
<path d="M313 226V253H286.6H260.2L259.6 255.2C259.3 256.5 259 260.2 259 263.5C259 266.8 259.3 270.5 259.6 271.7L260.2 274H286.6H313V300.4C313 323.5 313.2 326.9 314.6 327.4C315.5 327.7 320.2 328 325.1 328H334V301V274H360.9H387.8L388.4 271.7C389.1 268.8 389.1 258.2 388.4 255.2L387.8 253H360.9H334V226V199H323.5H313V226Z" fill="black"/>
<path d="M298.601 203.5C290.501 206.8 283.101 212.1 276.401 219.2C273.401 222.5 271.001 225.4 271.201 225.5C271.401 225.7 279.301 229.7 288.801 234.4L306.001 243V222C306.001 210.5 305.701 201 305.301 201C304.801 201 301.801 202.1 298.601 203.5Z" fill="#000066"/>
<path d="M341 221.299V241.799L358 233.099C367.3 228.399 375 223.999 375 223.299C375 222.699 371.9 219.299 368.1 215.799C361.4 209.599 349.9 202.799 343.8 201.399L341 200.799V221.299Z" fill="#000066"/>
<path d="M136.201 221.6C137.501 222.8 146.001 224.8 146.501 224C146.801 223.5 145.401 222.6 143.301 222.1C139.201 220.9 135.301 220.7 136.201 221.6Z" fill="black"/>
<path d="M502.1 225.099C500.8 225.599 499.9 226.199 500.2 226.499C500.7 226.999 508 225.099 508 224.499C508 223.699 504.7 224.099 502.1 225.099Z" fill="black"/>
<path d="M154.202 226.2C154.502 226.9 156.202 227.8 158.102 228.2C166.502 230 191.502 236.1 202.002 238.9C212.302 241.7 221.302 242.9 219.802 241.4C219.502 241.1 211.602 239.1 202.402 237C193.102 234.8 179.702 231.5 172.502 229.6C154.202 224.8 153.702 224.7 154.202 226.2Z" fill="black"/>
<path d="M359 236.8L341.5 245.5L348.7 245.8C355.7 246.1 356.1 246 368.2 239.9C375 236.5 380.7 233.6 380.9 233.4C381.7 232.6 379 228 377.8 228C377.1 228 368.6 232 359 236.8Z" fill="black"/>
<path d="M470.5 232.6C452.5 236.5 429 242.4 429.5 242.8C430.3 243.7 485 231.5 485 230.4C485 229.7 481.6 230.2 470.5 232.6Z" fill="black"/>
<path d="M264.6 236.6C263.4 239.7 264.1 240.7 269.8 243.4C274.5 245.7 276.6 246.1 282 245.8L288.5 245.5L278.2 240.2C267.1 234.6 265.5 234.2 264.6 236.6Z" fill="black"/>
<path d="M381 244L377.5 245.9L382.2 246C386.3 246 386.8 245.8 386.3 244C385.7 241.6 385.4 241.6 381 244Z" fill="black"/>
<path d="M261.5 245C261.1 245.6 262.1 246 263.7 246C265.9 246 266.2 245.8 265 245C263.1 243.8 262.3 243.8 261.5 245Z" fill="black"/>
<path d="M54.8 259.698C42.7 259.898 35 260.398 35 260.998C35 262.098 176.7 262.198 202.5 261.098C215.4 260.598 216.7 260.398 212 259.698C208.9 259.298 196.1 259.398 183.5 259.998C167.9 260.698 148.7 260.698 124 259.998C103.9 259.498 84.6 259.098 81 259.198C77.4 259.398 65.6 259.598 54.8 259.698Z" fill="black"/>
<path d="M544.501 260.1C515.401 260.4 478.001 260.5 461.401 260.2C439.201 259.8 431.101 260 430.601 260.8C429.901 261.9 468.901 262.5 548.001 262.5C574.201 262.5 611.901 261 612.601 259.9C612.901 259.4 609.601 259.1 605.301 259.2C601.001 259.3 573.701 259.7 544.501 260.1Z" fill="black"/>
<path d="M275.8 286.099C270.4 288.799 266 291.599 266 292.299C266 292.899 266.6 294.199 267.3 295.099C268.4 296.599 270.2 295.899 284 288.899L299.5 281.099H292.5C286.1 281.099 284.7 281.499 275.8 286.099Z" fill="black"/>
<path d="M370 286.499C375.8 289.499 381 291.899 381.5 291.899C382.1 291.999 383 290.699 383.6 289.099C384.7 286.399 384.6 286.199 379.3 283.599C375 281.499 372.6 280.999 366.7 281.099H359.5L370 286.499Z" fill="black"/>
<path d="M287.8 290.7C278.2 295.6 271 299.9 271 300.7C271 302.8 284 315.1 290.2 318.8C293.3 320.6 298.1 323 300.9 324L306 326V304C306 291.9 305.7 282 305.3 282.1C304.8 282.1 297 286 287.8 290.7Z" fill="#000066"/>
<path d="M284.401 377.9C253.001 346.3 205.201 308.6 167.901 286.3C164.901 284.5 162.801 283.1 163.201 283C166.201 282.9 227.801 312.5 251.501 325.5C270.201 335.8 297.601 352.3 312.001 362L323.701 369.9L310.051 379.9L296.401 389.9L284.401 377.9Z" fill="#BF0000"/>
<path fill-rule="evenodd" clip-rule="evenodd" d="M296.401 389.9L293.401 392.2C240.101 433.8 205.601 478.5 195.401 519.5C187.001 553 194.701 587.2 217.601 617.7C224.601 627.1 244.601 648.1 248.401 650.2C250.101 651.1 250.201 650.9 249.501 648.4C245.301 631.9 243.901 602 246.401 582.2C252.701 532.9 275.901 482.1 315.101 431.7C319.501 426.1 323.501 421.5 324.001 421.5L352.101 389.6C352.001 388.3 372.601 368.2 387.701 355C414.901 331 441.201 311.2 472.501 291.1C479.601 286.5 484.801 283 484.001 283.3C469.301 288.6 417.301 313.8 391.001 328.4C372.001 339 348.301 353.4 331.901 364.4L323.701 369.9L310.051 379.9L296.401 389.9Z" fill="#022274"/>
<path d="M361.601 473.7C349.301 453.2 326.401 421.5 324.001 421.5L352.101 389.6C352.101 390.1 356.701 394.1 362.201 398.5C375.401 408.9 403.701 436.5 414.201 449.2C462.701 507.6 468.801 563.4 432.201 615C425.801 624.1 399.701 652 398.601 650.9C398.301 650.6 399.001 645.5 400.101 639.5C409.301 588.9 395.701 530.2 361.601 473.7Z" fill="#BF0000"/>
<path d="M341 304.5V326.1L343.3 325.4C353.7 322.2 366.4 313.9 372.9 306.2L377 301.3L359 292.1L341 282.9V304.5Z" fill="#000066"/>
<path d="M202.502 363.3C189.902 367.5 182.902 374.5 179.402 386.6C175.102 401.6 182.402 417.7 196.802 425.1C200.702 427.1 203.002 427.5 210.502 427.5C218.602 427.5 220.202 427.2 226.102 424.3C233.202 420.8 237.702 416 241.302 408.2C244.402 401.6 244.402 388.5 241.302 381.8C234.802 367.6 216.302 358.8 202.502 363.3Z" fill="#022274"/>
<path d="M428.9 363.3C422.8 365 415.8 369.2 412.4 373.2C404.1 383.1 401.9 398 407.1 409.1C410.2 415.6 416.1 421.7 422.8 425.1C426.7 427.1 429 427.5 436.5 427.5C444.7 427.5 446.2 427.2 452.1 424.3C459.2 420.8 463.7 416 467.3 408.2C470.4 401.6 470.4 388.5 467.3 381.8C460.9 367.9 443.1 359.3 428.9 363.3Z" fill="#BF0000"/>
<path d="M64.5007 382.8C65.1007 383.3 70.5007 386.7 76.5007 390.4C122.001 418.4 162.301 460.3 182.201 500.4C184.501 505.1 186.701 509 187.001 509C187.401 509 188.401 506.4 189.401 503.2C190.401 500.1 194.501 491.1 198.501 483.3L205.701 469.1L201.601 465.2C192.201 456.2 165.601 436.4 148.901 425.9C136.801 418.4 110.301 403.6 100.801 399.1C96.2007 397 88.2007 393.2 83.0007 390.7C70.0007 384.6 63.3007 381.7 64.5007 382.8Z" fill="#022274"/>
<path d="M580.501 383.5C534.001 405.1 511.401 417.3 486.301 434.2C472.501 443.6 453.401 458.4 446.401 465.2L442.301 469.1L449.501 483.3C453.501 491.1 457.601 500.1 458.601 503.2C459.601 506.4 460.601 509 460.901 509C461.201 509 463.301 505.3 465.501 500.8C474.001 483.3 489.201 461.9 505.901 443.9C521.001 427.5 549.701 404.2 571.501 390.5C585.201 382 587.101 380.5 580.501 383.5Z" fill="#BF0000"/>
<path d="M39.6006 453.2C36.4006 460.5 32.8006 467.4 31.6006 468.6C29.6006 470.3 27.0006 470.9 15.4006 472C7.70064 472.7 0.900642 473.5 0.200642 473.9C-0.699358 474.4 2.50064 477.9 10.0006 484.5C16.1006 490 21.6006 495.3 22.1006 496.3C22.9006 497.6 22.3006 502.3 20.0006 513.1C18.2006 521.4 17.0006 528.4 17.3006 528.6C17.6006 528.9 23.6006 525.7 30.7006 521.6C37.8006 517.4 44.7006 514 45.9006 514C47.1006 514 54.0006 517.4 61.2006 521.6C68.3006 525.8 74.4006 528.9 74.7006 528.7C75.0006 528.4 73.8006 521.6 72.0006 513.5C70.3006 505.5 69.2006 498.1 69.5006 497C69.8006 495.9 75.3006 490.4 81.6006 484.8C89.0006 478.2 92.6006 474.3 91.8006 473.9C91.1006 473.5 84.3006 472.7 76.7006 472C66.5006 471 62.3006 470.2 60.7006 468.9C59.4006 468 55.8006 461.1 52.5006 453.6C49.2006 446.1 46.3006 440 46.0006 440C45.6006 440 42.8006 446 39.6006 453.2Z" fill="#BF0000"/>
<path d="M601.102 453.9C597.602 461.6 594.202 468.4 593.402 469.1C592.602 469.8 585.202 471.1 577.002 472C568.802 472.9 561.802 473.9 561.502 474.2C561.202 474.5 566.002 479.4 572.302 484.9C578.602 490.5 584.002 496 584.302 497C584.602 498 583.402 505.5 581.702 513.5C580.102 521.5 578.902 528.3 579.202 528.6C579.602 528.9 585.602 525.7 592.702 521.6C599.802 517.4 606.602 514 607.802 514C609.102 514 615.902 517.4 623.102 521.6C630.202 525.8 636.302 529 636.602 528.8C636.802 528.5 635.702 521.9 634.002 514.1C632.402 506.3 631.002 499.1 631.002 498C631.002 496.8 635.602 492 642.902 485.3C650.302 478.7 654.402 474.3 653.702 473.9C653.002 473.5 646.302 472.7 638.702 472C628.402 471 624.302 470.2 622.602 468.9C621.402 467.9 617.702 461.1 614.402 453.6C611.202 446.1 608.202 440 607.902 440C607.602 440 604.502 446.3 601.102 453.9Z" fill="#022274"/>
<path d="M128.001 530.099C101.201 540.899 77.5008 555.299 63.4008 569.399C48.5008 584.399 42.2008 596.299 41.3008 611.499C39.0008 648.799 76.6008 682.499 147.101 706.399C197.701 723.499 250.501 731.599 317.601 732.699C372.301 733.599 412.001 730.299 457.501 720.999C550.601 702.099 613.101 663.299 617.901 621.499C620.001 602.299 612.501 585.199 594.201 567.799C583.301 557.499 571.201 549.299 554.001 540.499C542.501 534.699 527.001 527.899 525.201 527.999C524.801 528.099 529.701 530.699 536.101 533.899C557.001 544.399 573.501 556.799 584.001 569.899C593.201 581.399 597.101 591.599 597.101 604.699C597.201 676.199 430.701 729.499 263.501 711.499C140.801 698.199 57.9008 652.399 62.3008 600.199C64.3008 575.999 86.4008 552.299 124.401 533.399C138.601 526.399 139.601 525.499 128.001 530.099Z" fill="#022274"/>
<circle cx="324.5" cy="263.5" r="66.5" fill="#D9D9D9"/>
<mask id="mask0_1580_168" style="mask-type:alpha" maskUnits="userSpaceOnUse" x="258" y="197" width="133" height="133">
<circle cx="324.5" cy="263.5" r="66.5" fill="#D9D9D9"/>
</mask>
<g mask="url(#mask0_1580_168)">
<path fill-rule="evenodd" clip-rule="evenodd" d="M434.353 329.997V197H214.846V329.997H434.353Z" fill="white"/>
<path fill-rule="evenodd" clip-rule="evenodd" d="M434.353 329.997V197H214.846V329.997H434.353Z" fill="#33348E"/>
<path fill-rule="evenodd" clip-rule="evenodd" d="M350.044 329.997V283.595H434.353V243.402H350.044V197H297.971V243.402H214.846V283.595H297.971V329.997H350.044Z" fill="white"/>
<path d="M241.578 197L434.353 313.807V330H408.097L214.846 212.905V197H241.578Z" fill="white"/>
<path d="M407.622 197L214.846 313.807V330H241.103L434.353 212.905V197H407.622Z" fill="white"/>
<path fill-rule="evenodd" clip-rule="evenodd" d="M434.353 250.67H340.477V197H308.812V250.67H214.846V276.327H308.812V329.997H340.477V276.327H434.353V250.67Z" fill="#CC2229"/>
<path d="M214.946 197L291.203 243.402H274.088L214.846 207.353V197H214.946ZM214.846 329.766V330H231.575L297.971 289.598V283.595H290.721L214.846 329.766ZM434.353 330V320.305L374.023 283.595H356.908L433.17 330H434.353ZM416.258 197L350.044 237.292V243.402H357.116L433.373 197H416.258Z" fill="#CC2229"/>
</g>
</svg>
