<svg width="61" height="61" viewBox="0 0 61 61" fill="none" xmlns="http://www.w3.org/2000/svg">
<path d="M13.6027 18.4034C13.1626 17.9633 12.4425 17.9633 12.0024 18.4033C11.5623 18.8434 11.5623 19.5636 12.0024 20.0037C12.4425 20.4438 13.1627 20.4438 13.6028 20.0037C14.0427 19.5636 14.0427 18.8434 13.6027 18.4034ZM20.0039 12.0022C19.5638 11.5621 18.8437 11.5621 18.4036 12.0022C17.9635 12.4423 17.9635 13.1624 18.4036 13.6025C18.8437 14.0426 19.5638 14.0426 20.0039 13.6025C20.4439 13.1623 20.4439 12.4422 20.0039 12.0022ZM13.6027 40.8074C13.1626 40.3673 12.4425 40.3673 12.0024 40.8074C11.5623 41.2475 11.5623 41.9677 12.0024 42.4078C12.4425 42.8479 13.1626 42.8479 13.6027 42.4078C14.0428 41.9677 14.0428 41.2475 13.6027 40.8074ZM32.0061 9.60175C31.126 8.72161 29.6857 8.72161 28.8056 9.60175C27.9254 10.4819 27.9253 11.9221 28.8055 12.8024C29.6857 13.6826 31.1259 13.6825 32.006 12.8024C32.8862 11.9222 32.8862 10.4819 32.0061 9.60175ZM25.6049 16.003C24.7248 15.1228 23.2845 15.1228 22.4044 16.003C21.5242 16.8831 21.5242 18.3234 22.4044 19.2035C23.2845 20.0836 24.7248 20.0836 25.6049 19.2035C26.485 18.3234 26.485 16.8831 25.6049 16.003ZM19.2037 22.4041C18.3236 21.524 16.8833 21.524 16.0032 22.4041C15.1231 23.2842 15.1231 24.7245 16.0032 25.6046C16.8833 26.4848 18.3235 26.4848 19.2037 25.6046C20.0839 24.7245 20.0839 23.2842 19.2037 22.4041ZM47.2088 42.4078C47.6489 42.8479 48.3691 42.8479 48.8092 42.4078C49.2493 41.9677 49.2493 41.2475 48.8092 40.8074C48.3691 40.3673 47.6489 40.3673 47.2088 40.8074C46.7687 41.2475 46.7687 41.9677 47.2088 42.4078ZM47.2088 20.0036C47.6489 20.4437 48.3691 20.4437 48.8092 20.0036C49.2492 19.5636 49.2492 18.8434 48.8091 18.4033C48.369 17.9632 47.6489 17.9632 47.2087 18.4033C46.7688 18.8434 46.7688 19.5636 47.2088 20.0036ZM35.2066 19.2035C36.0868 20.0836 37.527 20.0836 38.4072 19.2035C39.2873 18.3234 39.2873 16.8831 38.4072 16.003C37.527 15.1228 36.0868 15.1228 35.2066 16.003C34.3265 16.8831 34.3265 18.3234 35.2066 19.2035ZM40.8077 13.6025C41.2478 14.0426 41.9679 14.0426 42.408 13.6025C42.8481 13.1624 42.8481 12.4423 42.4079 12.0022C41.9678 11.5621 41.2477 11.5621 40.8076 12.0022C40.3676 12.4422 40.3676 13.1623 40.8077 13.6025ZM41.6078 25.6046C42.4879 26.4848 43.9282 26.4848 44.8083 25.6046C45.6884 24.7245 45.6884 23.2842 44.8083 22.4041C43.9282 21.524 42.4879 21.524 41.6078 22.4041C40.7276 23.2842 40.7276 24.7245 41.6078 25.6046ZM12.8026 28.8052C11.9225 27.9251 10.4822 27.9251 9.60207 28.8052C8.72194 29.6854 8.72194 31.1256 9.60207 32.0058C10.4822 32.8859 11.9224 32.886 12.8025 32.0059C13.6827 31.1256 13.6827 29.6854 12.8026 28.8052ZM39.2073 28.0051C37.8791 26.6768 35.7347 26.6768 34.4065 28.0051C33.0782 29.3333 33.0782 31.4777 34.4065 32.806C35.7347 34.1342 37.8791 34.1342 39.2073 32.806C40.5356 31.4777 40.5356 29.3333 39.2073 28.0051ZM38.4072 41.6076C37.5271 40.7275 36.0868 40.7275 35.2067 41.6076C34.3266 42.4877 34.3266 43.928 35.2067 44.8081C36.0868 45.6883 37.5271 45.6883 38.4072 44.8081C39.2874 43.928 39.2874 42.4877 38.4072 41.6076ZM32.0061 48.0087C31.126 47.1286 29.6857 47.1286 28.8056 48.0087C27.9254 48.8889 27.9254 50.3291 28.8056 51.2093C29.6856 52.0895 31.1259 52.0895 32.006 51.2094C32.8862 50.3291 32.8862 48.8889 32.0061 48.0087ZM44.8084 35.2065C43.9282 34.3263 42.488 34.3263 41.6079 35.2065C40.7277 36.0866 40.7277 37.5269 41.6079 38.407C42.488 39.2871 43.9282 39.2871 44.8084 38.407C45.6885 37.5269 45.6885 36.0866 44.8084 35.2065ZM42.4079 47.2087C41.9678 46.7685 41.2477 46.7685 40.8076 47.2086C40.3676 47.6487 40.3676 48.3688 40.8077 48.8089C41.2478 49.249 41.9679 49.249 42.408 48.8089C42.848 48.3688 42.848 47.6487 42.4079 47.2087ZM51.2096 28.8052C50.3295 27.9251 48.8892 27.9251 48.0091 28.8052C47.1289 29.6854 47.1288 31.1256 48.009 32.0059C48.8891 32.886 50.3294 32.886 51.2095 32.0059C52.0897 31.1257 52.0897 29.6854 51.2096 28.8052ZM26.4051 28.0051C25.0768 26.6768 22.9325 26.6768 21.6042 28.0051C20.2759 29.3333 20.2759 31.4777 21.6042 32.806C22.9324 34.1342 25.0768 34.1342 26.4051 32.806C27.7333 31.4777 27.7333 29.3333 26.4051 28.0051ZM19.2037 35.2064C18.3236 34.3263 16.8834 34.3263 16.0032 35.2064C15.1231 36.0865 15.1231 37.5268 16.0032 38.4069C16.8833 39.2871 18.3236 39.2871 19.2037 38.4069C20.0839 37.5268 20.0839 36.0865 19.2037 35.2064ZM32.8062 21.6039C31.4779 20.2757 29.3336 20.2757 28.0053 21.6039C26.6771 22.9322 26.6771 25.0765 28.0053 26.4048C29.3336 27.7331 31.4779 27.7331 32.8062 26.4048C34.1345 25.0765 34.1345 22.9322 32.8062 21.6039ZM25.6049 41.6075C24.7247 40.7274 23.2845 40.7274 22.4044 41.6075C21.5241 42.4877 21.5241 43.928 22.4043 44.8081C23.2844 45.6883 24.7247 45.6883 25.6048 44.8081C26.4851 43.928 26.4851 42.4877 25.6049 41.6075ZM20.0038 47.2086C19.5637 46.7685 18.8436 46.7685 18.4035 47.2086C17.9634 47.6487 17.9634 48.3688 18.4035 48.8089C18.8436 49.249 19.5637 49.249 20.0038 48.8089C20.4439 48.3688 20.4439 47.6487 20.0038 47.2086ZM32.8062 34.4062C31.4779 33.0779 29.3336 33.0779 28.0053 34.4062C26.6771 35.7345 26.6771 37.8788 28.0053 39.2071C29.3336 40.5354 31.4779 40.5354 32.8062 39.2071C34.1345 37.8788 34.1345 35.7345 32.8062 34.4062Z" fill="url(#paint0_linear_1310_322)"/>
<defs>
<linearGradient id="paint0_linear_1310_322" x1="45.6086" y1="15.2028" x2="15.203" y2="45.6084" gradientUnits="userSpaceOnUse">
<stop stop-color="#8B68FF"/>
<stop offset="0.5" stop-color="#664DB9"/>
<stop offset="1"/>
</linearGradient>
</defs>
</svg>
