<svg width="85" height="85" viewBox="0 0 85 85" fill="none" xmlns="http://www.w3.org/2000/svg">
<path d="M5.54004 21.2798L21.29 5.52979C18.49 7.12979 15.9 9.03978 13.55 11.2098L11.22 13.5398C9.05003 15.8798 7.14004 18.4798 5.54004 21.2798Z" fill="#3F10DA" fill-opacity="0.27"/>
<path d="M0.839844 33.8001L33.8099 0.830078C32.8999 1.01008 31.9999 1.23008 31.1099 1.47008L1.47986 31.1001C1.22986 31.9901 1.01984 32.8901 0.839844 33.8001Z" fill="#3F10DA" fill-opacity="0.27"/>
<path d="M0 42.18C0 42.27 0 42.36 0 42.45L42.45 0C42.36 0 42.27 0 42.18 0C41.57 0 40.96 0.0199933 40.35 0.0399933L0.039978 40.35C0.019978 40.96 0 41.56 0 42.18Z" fill="#3F10DA" fill-opacity="0.27"/>
<path d="M0.660156 49.6099L49.6301 0.639862C49.0401 0.539862 48.4402 0.439863 47.8502 0.359863L0.390137 47.8199C0.460137 48.4299 0.550156 49.0199 0.660156 49.6099Z" fill="#3F10DA" fill-opacity="0.27"/>
<path d="M2.26001 55.83L55.84 2.25C55.32 2.07 54.8 1.91 54.28 1.75L1.77002 54.26C1.92002 54.79 2.08001 55.31 2.26001 55.83Z" fill="#3F10DA" fill-opacity="0.27"/>
<path d="M4.59015 61.3199L61.3401 4.5699C60.8801 4.3399 60.4201 4.1099 59.9501 3.8999L3.91016 59.9299C4.13016 60.3999 4.35015 60.8599 4.59015 61.3199Z" fill="#3F10DA" fill-opacity="0.27"/>
<path d="M7.50989 66.2099L66.2199 7.49992C65.8099 7.21992 65.3999 6.93992 64.9899 6.66992L6.68994 64.9699C6.95994 65.3899 7.22989 65.7999 7.50989 66.2099Z" fill="#3F10DA" fill-opacity="0.27"/>
<path d="M10.9798 70.5598L70.5698 10.9698C70.2098 10.6398 69.8398 10.3198 69.4698 10.0098L10.0098 69.4698C10.3298 69.8398 10.6498 70.1998 10.9798 70.5598Z" fill="#3F10DA" fill-opacity="0.27"/>
<path d="M14.9598 74.4001L74.4099 14.9501C74.0999 14.5801 73.7798 14.2101 73.4498 13.8501L13.8599 73.4401C14.2199 73.7701 14.5898 74.0901 14.9598 74.4001Z" fill="#3F10DA" fill-opacity="0.27"/>
<path d="M19.4597 77.7199L77.7397 19.4399C77.4697 19.0199 77.1997 18.61 76.9097 18.21L18.2197 76.8999C18.6297 77.1799 19.0397 77.4599 19.4597 77.7199Z" fill="#3F10DA" fill-opacity="0.27"/>
<path d="M24.5101 80.4899L80.5001 24.4998C80.2801 24.0298 80.0601 23.5699 79.8301 23.1099L23.1201 79.8199C23.5801 80.0499 24.0401 80.2699 24.5101 80.4899Z" fill="#3F10DA" fill-opacity="0.27"/>
<path d="M30.1899 82.6301L82.6499 30.1801C82.4899 29.6501 82.3299 29.1301 82.1599 28.6201L28.6299 82.1501C29.1399 82.3101 29.6599 82.4701 30.1899 82.6301Z" fill="#3F10DA" fill-opacity="0.27"/>
<path d="M36.6301 84.0001L84.0101 36.6201C83.9301 36.0201 83.8401 35.4301 83.7401 34.8301L34.8501 83.7201C35.4401 83.8301 36.0301 83.9201 36.6301 84.0001Z" fill="#3F10DA" fill-opacity="0.27"/>
<path d="M42.1901 84.37C42.8401 84.37 43.49 84.35 44.13 84.32L84.33 44.12C84.36 43.48 84.38 42.83 84.38 42.18C84.38 42.13 84.38 42.07 84.38 42.02L42.04 84.36C42.08 84.36 42.1401 84.37 42.1901 84.37Z" fill="#3F10DA" fill-opacity="0.27"/>
<path d="M53.4202 82.8502L82.8602 53.4102C83.1102 52.5202 83.3302 51.6102 83.5102 50.7002L50.7002 83.5102C51.6202 83.3202 52.5302 83.1002 53.4202 82.8502Z" fill="#3F10DA" fill-opacity="0.27"/>
<path d="M78.6901 63.3398L63.3501 78.6799C69.7001 74.9899 75.0001 69.6898 78.6901 63.3398Z" fill="#3F10DA" fill-opacity="0.27"/>
</svg>
